# xmcd
#
# Track frame offsets:
#	150
#	26537
#	55847
#	77151
#	102762
#	120609
#	141429
#	159132
#	178207
#	201433
#	216047
#	240516
#	259324
#	269846
#	287982
#	304592
#
# Disc length: 4386 seconds
#
# Revision: 0
# Processed by: cddbd v1.5.2PL0 Copyright (c) Steve Scherf et al.
# Submitted via: EasyCDDAExtractor 16.0.6.1
#
DISCID=ee112010
DTITLE=Συλλογικός δίσκος - Φανάρι της Ανατολής
DYEAR=1994
DGENRE=Ποικίλη
TTITLE0=Παπαγεωργίου Βασιλική - Τζιβαέρι [εισαγωγή ταξίμι με βιολοντσέλο, Μικρ
TTITLE0=άς Ασίας]
TTITLE1=Άνευ ερμηνευτού - Daglar (Τα βουνά) [οργανικό, χορευτικός ρυθμός 10/8]
TTITLE2=Παπαγεωργίου Βασιλική - Guzelligin on par' etmez (Η ομορφιά σου δε θ' 
TTITLE2=άξιζε) [ασίκικο Asik Veysel]
TTITLE3=Melda Kurt - Tutam yar elinden (Την αγαπημένη θα πάρω από χέρι) [ασίκι
TTITLE3=κο Asik Emrah]
TTITLE4=Παπαγεωργίου Βασιλική - Δυό κυπαρίσσια [Πλωμάρι Μυτιλήνης, Μικράς Ασία
TTITLE4=ς]
TTITLE5=Άνευ ερμηνευτού - Hard times [ανατολίτικη διασκευή αμερικάνικου τραγου
TTITLE5=διού]
TTITLE6=Παπαγεωργίου Βασιλική - Τρία καράβια [Μακράς Γέφυρας Ανατολικής Θράκης
TTITLE6=]
TTITLE7=Παπαγεωργίου Βασιλική - Της θάλασσας βαστώ κακία [Σμυρνέϊκο]
TTITLE8=Άνευ ερμηνευτού - Καλαματιανό [οργανικό του Kim Sanders]
TTITLE9=Παπαγεωργίου Βασιλική - Η ώρα του θανάτου [αμανές Μικράς Ασίας]
TTITLE10=Melda Kurt - Kullak verdim (Υπάκουσα) [ασίκικο του Karacoglan]
TTITLE11=Melda Kurt - Basina dondugum (Τριγύρω σου γυρίζω) [ασίκικο του Asik I
TTITLE11=kram]
TTITLE12=Παπαγεωργίου Βασιλική - Από τα γλυκά σου μάτια [Μικράς Ασίας]
TTITLE13=Παπαγεωργίου Βασιλική - Huma kusu (Το πουλί της φωτιάς) [τούρκικος μα
TTITLE13=νές]
TTITLE14=Melda Kurt - Dem geldi semahi (Το πλήρωμα του χρόνου) [ασίκικο Kul Hu
TTITLE14=seyin]
TTITLE15=Άνευ ερμηνευτού - Ninni [Νανούρισμα για τη Σεβάστεια του Hasan Esey]
EXTD=
EXTT0=
EXTT1=
EXTT2=
EXTT3=
EXTT4=
EXTT5=
EXTT6=
EXTT7=
EXTT8=
EXTT9=
EXTT10=
EXTT11=
EXTT12=
EXTT13=
EXTT14=
EXTT15=
PLAYORDER=
